<?xml version="1.0" encoding="UTF-8"?>
<svg width="23px" height="22px" viewBox="0 0 23 22" version="1.1" xmlns="http://www.w3.org/2000/svg" xmlns:xlink="http://www.w3.org/1999/xlink">
    <!-- Generator: Sketch 59.1 (86144) - https://sketch.com -->
    <title>Alarms</title>
    <desc>Created with Sketch.</desc>
    <g id="Page-1" stroke="none" stroke-width="1" fill="none" fill-rule="evenodd">
        <g id="Content" transform="translate(-325.000000, -559.000000)" fill="#FFFFFF">
            <path d="M336.099256,565.172703 C336.375256,565.172703 336.599256,565.396704 336.599256,565.672703 L336.599,570.172001 L340.099256,570.172703 C340.34459,570.172703 340.548837,570.349691 340.591196,570.582865 L340.599256,570.672703 C340.599256,570.948703 340.375257,571.172703 340.099256,571.172703 L336.099256,571.172703 C335.823256,571.172703 335.599256,570.948703 335.599256,570.672703 L335.599256,565.672703 C335.599256,565.427371 335.776243,565.223124 336.009418,565.180764 L336.099256,565.172703 Z M342.929655,559.062203 C343.879656,559.606204 344.773655,560.284203 345.585655,561.096204 C346.393656,561.905204 347.069656,562.797204 347.612656,563.744204 C347.741655,563.969205 347.663656,564.260204 347.444656,564.399204 L346.618656,564.925204 C346.383656,565.075204 346.078655,564.991204 345.940655,564.747205 C345.479654,563.932204 344.906656,563.163205 344.212656,562.469205 C343.516657,561.773204 342.745657,561.197203 341.927656,560.735203 C341.684656,560.598204 341.599657,560.293204 341.750656,560.057204 L342.275656,559.231204 C342.414656,559.012204 342.704655,558.933203 342.929655,559.062203 Z M329.745456,559.062203 C329.970456,558.933203 330.260456,559.012204 330.399456,559.231204 L330.924456,560.057204 C331.075456,560.293204 330.990456,560.598204 330.747456,560.735203 C329.929456,561.197203 329.158456,561.773204 328.462456,562.469205 C327.768456,563.163205 327.195456,563.932204 326.734456,564.747205 C326.596456,564.991204 326.291456,565.075204 326.056456,564.925204 L325.230456,564.399204 C325.011456,564.260204 324.933456,563.969205 325.062456,563.744204 C325.605456,562.797204 326.281456,561.905204 327.089456,561.096204 C327.901456,560.284203 328.795456,559.606204 329.745456,559.062203 Z M336.334956,560.172703 C330.811956,560.172703 326.334956,564.649704 326.334956,570.172703 C326.334956,575.695702 330.811956,580.172703 336.334956,580.172703 C341.857956,580.172703 346.334956,575.695702 346.334956,570.172703 C346.334956,564.649704 341.857956,560.172703 336.334956,560.172703 Z M336.334956,562.172703 C340.745956,562.172703 344.334956,565.761704 344.334956,570.172703 C344.334956,574.583703 340.745956,578.172703 336.334956,578.172703 C331.923956,578.172703 328.334956,574.583703 328.334956,570.172703 C328.334956,565.761704 331.923956,562.172703 336.334956,562.172703 Z" id="Alarms"></path>
        </g>
    </g>
</svg>