<?xml version="1.0" encoding="UTF-8"?>
<svg width="16px" height="16px" viewBox="0 0 16 16" version="1.1" xmlns="http://www.w3.org/2000/svg" xmlns:xlink="http://www.w3.org/1999/xlink">
    <!-- Generator: Sketch 59.1 (86144) - https://sketch.com -->
    <title>Fill 1</title>
    <desc>Created with Sketch.</desc>
    <g id="Page-1" stroke="none" stroke-width="1" fill="none" fill-rule="evenodd">
        <g id="Content" transform="translate(-687.000000, -478.000000)" fill="#FFFFFF">
            <path d="M701.722309,479.945167 C702.167293,479.500183 702.167294,478.778722 701.72231,478.333738 C701.277327,477.888754 700.555866,477.888754 700.110883,478.333737 L694.528024,483.916596 L688.945168,478.333739 C688.500184,477.888755 687.778722,477.888754 687.333738,478.333737 C686.888755,478.778722 686.888755,479.500182 687.333739,479.945167 L692.916596,485.528023 L687.333737,491.110884 C686.888753,491.555867 686.888755,492.277327 687.333739,492.72231 C687.778722,493.167294 688.500183,493.167294 688.945167,492.72231 L694.528024,487.139453 L700.110882,492.722309 C700.555865,493.167293 701.277327,493.167294 701.72231,492.72231 C702.167294,492.277327 702.167294,491.555866 701.72231,491.110883 L696.139453,485.528023 L701.722309,479.945167 Z" id="Fill-1"></path>
        </g>
    </g>
</svg>