<?xml version="1.0" encoding="UTF-8"?>
<svg width="24px" height="24px" viewBox="0 0 24 24" version="1.1" xmlns="http://www.w3.org/2000/svg" xmlns:xlink="http://www.w3.org/1999/xlink">
    <!-- Generator: Sketch 59.1 (86144) - https://sketch.com -->
    <title>Explicit</title>
    <desc>Created with Sketch.</desc>
    <g id="Page-1" stroke="none" stroke-width="1" fill="none" fill-rule="evenodd">
        <g id="Content" transform="translate(-708.000000, -222.000000)" fill="#FFFFFF">
            <path d="M723.974401,230.0712 L718.536,230.0712 L718.536,232.965601 L723.6672,232.965601 L723.6672,234.895201 L718.536,234.895201 L718.536,237.9216 L723.974401,237.9216 L723.974401,240 L716.0232,240 L716.0232,228 L723.974401,228 L723.974401,230.0712 Z M708,223.200001 L708,244.800001 C708,245.4624 708.5376,246 709.2,246 L730.800001,246 C731.4624,246 732,245.4624 732,244.800001 L732,223.200001 C732,222.5376 731.4624,222 730.800001,222 L709.2,222 C708.5376,222 708,222.5376 708,223.200001 Z" id="Explicit"></path>
        </g>
    </g>
</svg>