<?xml version="1.0" encoding="UTF-8"?>
<svg width="20px" height="20px" viewBox="0 0 20 20" version="1.1" xmlns="http://www.w3.org/2000/svg" xmlns:xlink="http://www.w3.org/1999/xlink">
    <!-- Generator: Sketch 59.1 (86144) - https://sketch.com -->
    <title>Favorite</title>
    <desc>Created with Sketch.</desc>
    <g id="Page-1" stroke="none" stroke-width="1" fill="none" fill-rule="evenodd">
        <g id="Content" transform="translate(-299.000000, -208.000000)" fill="#FFFFFF">
            <path d="M307.090247,216.083579 L301.749374,216.466158 L305.860022,220.09245 L304.588632,225.433863 L309,222.509381 L313.410879,225.433539 L312.138533,220.092448 L316.250261,216.466132 L310.909754,216.083579 L309.000001,211.06452 L307.090247,216.083579 Z M309,224.309063 L303.595381,227.892014 C303.112052,228.211235 302.488442,227.77454 302.623621,227.211432 L304.192211,220.621409 L299.21736,216.232742 C298.792693,215.857336 299.028619,215.157601 299.593566,215.11674 L306.028607,214.655783 L308.404447,208.411797 C308.612316,207.862734 309.387684,207.862734 309.595553,208.411797 L311.971393,214.655783 L318.406433,215.11674 C318.97138,215.157601 319.207308,215.857336 318.78264,216.232742 L313.806515,220.621409 L315.376379,227.211432 C315.510283,227.77454 314.886672,228.211235 314.404618,227.892014 L309,224.309063 Z" id="Favorite"></path>
        </g>
    </g>
</svg>