<?xml version="1.0" encoding="UTF-8"?>
<svg width="20px" height="20px" viewBox="0 0 20 20" version="1.1" xmlns="http://www.w3.org/2000/svg" xmlns:xlink="http://www.w3.org/1999/xlink">
    <!-- Generator: Sketch 59.1 (86144) - https://sketch.com -->
    <title>Home</title>
    <desc>Created with Sketch.</desc>
    <g id="Page-1" stroke="none" stroke-width="1" fill="none" fill-rule="evenodd">
        <g id="Content" transform="translate(-456.000000, -553.000000)" fill="#FFFFFF">
            <path d="M466.886032,554.984655 C466.372068,554.56067 465.627931,554.56067 465.113967,554.984655 L458.169523,560.713341 C457.851009,560.976094 457.666667,561.366538 457.666667,561.778411 L457.666667,570.938173 C457.666667,571.156414 457.844332,571.333332 458.063492,571.333332 L473.936508,571.333332 C474.155668,571.333332 474.333332,571.156414 474.333332,570.938173 L474.333332,561.778411 C474.333332,561.366538 474.148991,560.976094 473.830477,560.713341 L466.886032,554.984655 Z M467.727763,553.620403 L475.01943,559.638681 C475.640533,560.151317 476,560.913084 476,561.716659 L476,571.339456 C476,572.256548 475.253807,573 474.333332,573 L457.666667,573 C456.746192,573 456,572.256548 456,571.339456 L456,561.716659 C456,560.913084 456.359467,560.151317 456.98057,559.638681 L464.272237,553.620403 C465.274466,552.793199 466.725534,552.793199 467.727763,553.620403 Z" id="Home"></path>
        </g>
    </g>
</svg>