<?xml version="1.0" encoding="UTF-8"?>
<svg width="22px" height="16px" viewBox="0 0 22 16" version="1.1" xmlns="http://www.w3.org/2000/svg" xmlns:xlink="http://www.w3.org/1999/xlink">
    <!-- Generator: Sketch 59.1 (86144) - https://sketch.com -->
    <title>HomeTheater</title>
    <desc>Created with Sketch.</desc>
    <g id="Page-1" stroke="none" stroke-width="1" fill="none" fill-rule="evenodd">
        <g id="Content" transform="translate(-404.000000, -548.000000)" fill="#FFFFFF">
            <g id="HomeTheater" transform="translate(404.000000, 548.000000)">
                <path d="M6.502,14 L15.497,14 C15.629608,14 15.756785,14.052678 15.850554,14.146446 C15.944322,14.240214 15.997,14.367392 15.997,14.5 L15.997,15.5 C15.997,15.632608 15.944322,15.759786 15.850554,15.853554 C15.756785,15.947322 15.629608,16 15.497,16 L6.502,16 C6.369391,16 6.242215,15.947322 6.148447,15.853554 C6.054678,15.759786 6.002,15.632608 6.002,15.5 L6.002,14.5 C6.002,14.367392 6.054678,14.240214 6.148447,14.146446 C6.242215,14.052678 6.369391,14 6.502,14 Z" id="Fill-1"></path>
                <path d="M0.146447,0.146446 C0.240215,0.052678 0.367392,0 0.5,0 L21.5,0 C21.632608,0 21.759785,0.052678 21.853554,0.146446 C21.947323,0.240215 22,0.367392 22,0.5 L22,12.5 C22,12.632608 21.947323,12.759786 21.853554,12.853554 C21.759785,12.947322 21.632608,13 21.5,13 L0.5,13 C0.367392,13 0.240215,12.947322 0.146447,12.853554 C0.052678,12.759786 0,12.632608 0,12.5 L0,0.5 C0,0.367392 0.052678,0.240215 0.146447,0.146446 Z M2,2 L2,11 L19.991001,11 L19.991001,2 L2,2 Z" id="Fill-2"></path>
            </g>
        </g>
    </g>
</svg>