<?xml version="1.0" encoding="UTF-8"?>
<svg width="30px" height="32px" viewBox="0 0 30 32" version="1.1" xmlns="http://www.w3.org/2000/svg" xmlns:xlink="http://www.w3.org/1999/xlink">
    <!-- Generator: Sketch 59.1 (86144) - https://sketch.com -->
    <title>Group 24</title>
    <desc>Created with Sketch.</desc>
    <g id="Page-1" stroke="none" stroke-width="1" fill="none" fill-rule="evenodd">
        <g id="Content" transform="translate(-247.000000, -212.000000)" fill="#FFFFFF">
            <g id="Group-24" transform="translate(247.000000, 211.211182)">
                <path d="M0.01665,18.593176 C-0.383404,10.03845 6.477523,2.98403 15.008674,2.98403 L15.008674,1.285008 C15.008674,0.847832 15.548747,0.619308 15.858789,0.937252 L18.579155,3.629856 C18.779182,3.828571 18.779182,4.146519 18.579155,4.335299 L15.858789,7.037836 C15.788284,7.106495 15.698898,7.152885 15.601897,7.171158 C15.504897,7.18943 15.404621,7.17877 15.31371,7.140518 C15.222798,7.102268 15.145318,7.038137 15.091035,6.956211 C15.036752,6.874283 15.008094,6.778229 15.008674,6.680147 L15.008674,4.97119 C7.657681,4.97119 1.716879,11.041966 2.006918,18.404394 C2.266953,25.04151 7.797699,30.536011 14.488604,30.79434 C21.71958,31.072544 27.720388,25.458815 27.999426,18.404394 C28.001738,18.27599 28.054113,18.153486 28.145523,18.062677 C28.236931,17.971867 28.360243,17.919836 28.489494,17.91754 L29.48963,17.91754 C29.769667,17.91754 30.009699,18.156 29.999697,18.434202 C29.699656,26.651112 22.718716,33.168995 14.287576,32.771563 C6.646544,32.423809 0.365697,26.184128 0.015649,18.593176 L0.01665,18.593176 Z" id="Fill-22"></path>
                <path d="M10.849609,17.624756 L11.738281,17.624756 C12.661133,17.624756 13.232422,18.078858 13.232422,18.806397 C13.232422,19.499756 12.626953,19.99292 11.767578,19.99292 C10.913086,19.99292 10.327148,19.55835 10.258789,18.874756 L9.208984,18.874756 C9.272461,20.134522 10.288086,20.959717 11.767578,20.959717 C13.237305,20.959717 14.350586,20.06128 14.350586,18.864991 C14.350586,17.922608 13.764648,17.263428 12.802734,17.151123 L12.802734,17.068116 C13.579102,16.892334 14.0625,16.267334 14.0625,15.437256 C14.0625,14.377686 13.056641,13.572022 11.748047,13.572022 C10.336914,13.572022 9.418945,14.358155 9.345703,15.632569 L10.385742,15.632569 C10.444336,14.939209 10.947266,14.514405 11.713867,14.514405 C12.480469,14.514405 12.983398,14.944092 12.983398,15.598389 C12.983398,16.262452 12.460938,16.721436 11.704102,16.721436 L10.849609,16.721436 L10.849609,17.624756 Z M18.208008,20.959717 C19.848633,20.959717 20.805664,19.607178 20.805664,17.268311 C20.805664,14.934326 19.833984,13.572022 18.208008,13.572022 C16.572266,13.572022 15.600586,14.929444 15.600586,17.258545 C15.600586,19.602295 16.5625,20.959717 18.208008,20.959717 Z M18.208008,20.002686 C17.250977,20.002686 16.704102,19.040772 16.704102,17.258545 C16.704102,15.49585 17.260742,14.529053 18.208008,14.529053 C19.155273,14.529053 19.702148,15.490967 19.702148,17.258545 C19.702148,19.045655 19.165039,20.002686 18.208008,20.002686 Z" id="Fill-23"></path>
            </g>
        </g>
    </g>
</svg>