<?xml version="1.0" encoding="UTF-8"?>
<svg width="64px" height="64px" viewBox="0 0 64 64" version="1.1" xmlns="http://www.w3.org/2000/svg" xmlns:xlink="http://www.w3.org/1999/xlink">
    <!-- Generator: Sketch 59.1 (86144) - https://sketch.com -->
    <title>Fill 1</title>
    <desc>Created with Sketch.</desc>
    <g id="Page-1" stroke="none" stroke-width="1" fill="none" fill-rule="evenodd">
        <g id="Content" transform="translate(-228.000000, 0.000000)" fill="#FFFFFF">
            <path d="M260,0 C242.326888,0 228,14.326889 228,32 C228,49.673111 242.326888,64 260,64 C277.673111,64 292,49.673111 292,32 C292,14.326889 277.673111,0 260,0 Z M253.170078,43.894096 C252.649794,44.19495 252,43.819069 252,43.216606 L252,20.782227 C252,20.644958 252.035906,20.510086 252.104338,20.391182 C252.17277,20.27227 252.271235,20.173519 252.389832,20.104851 C252.508429,20.036182 252.642973,20 252.77994,20 C252.916906,20 253.051462,20.036102 253.170078,20.104736 L272.625725,31.349689 C272.739517,31.415543 272.834015,31.510254 272.899715,31.624302 C272.965412,31.738354 273,31.867725 273,31.99942 C273,32.131111 272.965412,32.260483 272.899715,32.374531 C272.834015,32.488583 272.739517,32.583294 272.625725,32.649143 L253.170078,43.894096 Z" id="Fill-1"></path>
        </g>
    </g>
</svg>