<?xml version="1.0" encoding="UTF-8"?>
<svg width="20px" height="20px" viewBox="0 0 20 20" version="1.1" xmlns="http://www.w3.org/2000/svg" xmlns:xlink="http://www.w3.org/1999/xlink">
    <!-- Generator: Sketch 59.1 (86144) - https://sketch.com -->
    <title>Rooms</title>
    <desc>Created with Sketch.</desc>
    <g id="Page-1" stroke="none" stroke-width="1" fill="none" fill-rule="evenodd">
        <g id="Content" transform="translate(-645.000000, -249.000000)" fill="#FFFFFF">
            <path d="M651.354167,260.944443 L652.326389,260.944443 C652.460625,260.944443 652.569444,261.053263 652.569444,261.1875 L652.569444,263.618054 C652.569444,263.75229 652.460625,263.861111 652.326389,263.861111 L651.354167,263.861111 C651.219931,263.861111 651.111111,263.75229 651.111111,263.618054 L651.111111,261.1875 C651.111111,261.053263 651.219931,260.944443 651.354167,260.944443 Z M654.513889,256.083333 L655.419823,256.083333 C655.554059,256.083333 655.662878,256.192153 655.662878,256.326389 L655.662878,263.618054 C655.662878,263.75229 655.554059,263.861111 655.419823,263.861111 L654.513889,263.861111 C654.379653,263.861111 654.270833,263.75229 654.270833,263.618054 L654.270833,256.326389 C654.270833,256.192153 654.379653,256.083333 654.513889,256.083333 Z M657.673611,259 L658.645833,259 C658.780069,259 658.888888,259.10882 658.888888,259.243055 L658.888888,263.618054 C658.888888,263.75229 658.780069,263.861111 658.645833,263.861111 L657.673611,263.861111 C657.539374,263.861111 657.430555,263.75229 657.430555,263.618054 L657.430555,259.243055 C657.430555,259.10882 657.539374,259 657.673611,259 Z M655.886032,250.984655 C655.372068,250.56067 654.627931,250.56067 654.113967,250.984655 L647.169523,256.713341 C646.851009,256.976093 646.666667,257.366538 646.666667,257.778411 L646.666667,266.938173 C646.666667,267.156414 646.844332,267.333332 647.063492,267.333332 L662.936508,267.333332 C663.155668,267.333332 663.333332,267.156414 663.333332,266.938173 L663.333332,257.778411 C663.333332,257.366538 663.148991,256.976093 662.830477,256.713341 L655.886032,250.984655 Z M656.727763,249.620403 L664.01943,255.638681 C664.640533,256.151317 665,256.913083 665,257.716659 L665,267.339456 C665,268.256549 664.253807,269 663.333332,269 L646.666667,269 C645.746192,269 645,268.256549 645,267.339456 L645,257.716659 C645,256.913083 645.359467,256.151317 645.98057,255.638681 L653.272237,249.620403 C654.274466,248.793199 655.725533,248.793199 656.727763,249.620403 Z" id="Rooms"></path>
        </g>
    </g>
</svg>