<?xml version="1.0" encoding="UTF-8"?>
<svg width="20px" height="20px" viewBox="0 0 20 20" version="1.1" xmlns="http://www.w3.org/2000/svg" xmlns:xlink="http://www.w3.org/1999/xlink">
    <!-- Generator: Sketch 59.1 (86144) - https://sketch.com -->
    <title>RoundCheckmarkActive</title>
    <desc>Created with Sketch.</desc>
    <g id="Page-1" stroke="none" stroke-width="1" fill="none" fill-rule="evenodd">
        <g id="Content" transform="translate(-450.000000, -414.000000)" fill="#FFFFFF">
            <path d="M460,434 C465.522847,434 470,429.522847 470,424 C470,418.477152 465.522847,414 460,414 C454.477152,414 450,418.477152 450,424 C450,429.522847 454.477152,434 460,434 Z M465.267476,420.12055 L465.874443,420.705137 C466.041853,420.866147 466.041853,421.12789 465.874443,421.288898 L457.983011,428.878625 C457.898877,428.959542 457.788988,429 457.679099,429 C457.569209,429 457.45932,428.959542 457.376044,428.878625 L453.125557,424.792294 C452.958148,424.630459 452.958148,424.368716 453.125557,424.208532 L453.732524,423.623945 C453.816658,423.543854 453.926548,423.503395 454.036437,423.503395 C454.146327,423.503395 454.256216,423.543854 454.339491,423.623945 L457.679099,426.835046 L464.660508,420.12055 C464.744642,420.040459 464.854532,420 464.963563,420 C465.073452,420 465.183342,420.040459 465.267476,420.12055 Z" id="RoundCheckmarkActive"></path>
        </g>
    </g>
</svg>