<?xml version="1.0" encoding="UTF-8"?>
<svg width="20px" height="20px" viewBox="0 0 20 20" version="1.1" xmlns="http://www.w3.org/2000/svg" xmlns:xlink="http://www.w3.org/1999/xlink">
    <!-- Generator: Sketch 59.1 (86144) - https://sketch.com -->
    <title>Settings</title>
    <desc>Created with Sketch.</desc>
    <g id="Page-1" stroke="none" stroke-width="1" fill="none" fill-rule="evenodd">
        <g id="Content" transform="translate(-344.000000, -292.000000)" fill="#FFFFFF">
            <path d="M354,307 C351.243,307 349,304.757 349,302 C349,299.243 351.243,297 354,297 C356.757,297 359,299.243 359,302 C359,304.757 356.757,307 354,307 Z M363.5,301 L360.92,301 C360.750999,299.815001 360.285999,298.729 359.601,297.814 L361.424999,295.99 C361.619999,295.793999 361.619999,295.478001 361.424999,295.282 L360.718,294.575001 C360.522001,294.379999 360.205999,294.379999 360.01,294.575001 L358.186001,296.399 C357.271001,295.714001 356.184999,295.249001 355,295.08 L355,292.5 C355,292.224001 354.776,292 354.5,292 L353.5,292 C353.224,292 353,292.224001 353,292.5 L353,295.08 C351.815,295.249001 350.729,295.714001 349.814,296.399 L347.99,294.575001 C347.794,294.379999 347.478,294.379999 347.282,294.575001 L346.575,295.282 C346.38,295.478001 346.38,295.793999 346.575,295.99 L348.399,297.814 C347.714,298.729 347.249,299.815001 347.08,301 L344.5,301 C344.224,301 344,301.224 344,301.5 L344,302.5 C344,302.776 344.224,303 344.5,303 L347.08,303 C347.249,304.184999 347.714,305.271001 348.399,306.186001 L346.575,308.01 C346.38,308.205999 346.38,308.522001 346.575,308.718 L347.282,309.424999 C347.478,309.619999 347.794,309.619999 347.99,309.424999 L349.814,307.601 C350.729,308.285999 351.815,308.750999 353,308.92 L353,311.5 C353,311.775999 353.224,312 353.5,312 L354.5,312 C354.776,312 355,311.775999 355,311.5 L355,308.92 C356.184999,308.750999 357.271001,308.285999 358.186001,307.601 L360.01,309.424999 C360.205999,309.619999 360.522001,309.619999 360.718,309.424999 L361.424999,308.718 C361.619999,308.522001 361.619999,308.205999 361.424999,308.01 L359.601,306.186001 C360.285999,305.271001 360.750999,304.184999 360.92,303 L363.5,303 C363.775999,303 364,302.776 364,302.5 L364,301.5 C364,301.224 363.775999,301 363.5,301 Z" id="Settings"></path>
        </g>
    </g>
</svg>