<?xml version="1.0" encoding="UTF-8"?>
<svg width="64px" height="64px" viewBox="0 0 64 64" version="1.1" xmlns="http://www.w3.org/2000/svg" xmlns:xlink="http://www.w3.org/1999/xlink">
    <!-- Generator: Sketch 59.1 (86144) - https://sketch.com -->
    <title>stop</title>
    <desc>Created with Sketch.</desc>
    <g id="Page-1" stroke="none" stroke-width="1" fill="none" fill-rule="evenodd">
        <g id="Content" fill="#FFFFFF">
            <path d="M32,0 C14.326888,0 0,14.326889 0,32 C0,49.673111 14.326888,64 32,64 C49.673111,64 64,49.673111 64,32 C64,14.326889 49.673111,0 32,0 Z M22,20.5 C22,20.223858 22.223858,20 22.5,20 L41.5,20 C41.776142,20 42,20.223858 42,20.5 L42,43.5 C42,43.776142 41.776142,44 41.5,44 L22.5,44 C22.223858,44 22,43.776142 22,43.5 L22,20.5 Z" id="stop"></path>
        </g>
    </g>
</svg>