<?xml version="1.0" encoding="UTF-8"?>
<svg width="16px" height="14px" viewBox="0 0 16 14" version="1.1" xmlns="http://www.w3.org/2000/svg" xmlns:xlink="http://www.w3.org/1999/xlink">
    <!-- Generator: Sketch 59.1 (86144) - https://sketch.com -->
    <title>volumeLow</title>
    <desc>Created with Sketch.</desc>
    <g id="Page-1" stroke="none" stroke-width="1" fill="none" fill-rule="evenodd">
        <g id="Content" transform="translate(-483.000000, -294.000000)" fill="#FFFFFF">
            <path d="M486,298 L490.125,294.12433 C490.472,293.835331 491,294.082331 491,294.53433 L491,307.46533 C491,307.89133 490.525,308.14533 490.171,307.90933 L486,303.99933 L483.5,303.99933 C483.224,303.99933 483,303.77533 483,303.49933 L483,298.5 C483,298.224 483.224,298 483.5,298 L486,298 Z M497.624038,297.583944 C497.394274,297.239298 496.928621,297.146168 496.583975,297.375932 C496.239328,297.605696 496.146198,298.071348 496.375962,298.415994 C496.977313,299.31802 497.25,300.175699 497.25,300.999969 C497.25,301.82424 496.977313,302.681919 496.375962,303.583944 C496.146198,303.928591 496.239328,304.394243 496.583975,304.624007 C496.928621,304.853771 497.394274,304.760641 497.624038,304.415994 C498.356021,303.31802 498.75,302.175699 498.75,300.999969 C498.75,299.82424 498.356021,298.681919 497.624038,297.583944 Z" id="volumeLow"></path>
        </g>
    </g>
</svg>